Coordinates
version=1
nRows=17
nColumns=40
inDegrees=yes

Units are S.I. units (second, meters, Newtons, ...)
If the header above contains a line with 'inDegrees', this indicates whether rotational values are in degrees (yes) or radians (no).

endheader
time	pelvis_tilt	pelvis_list	pelvis_rotation	pelvis_tx	pelvis_ty	pelvis_tz	hip_flexion_r	hip_adduction_r	hip_rotation_r	knee_angle_r	knee_angle_r_beta	ankle_angle_r	subtalar_angle_r	mtp_angle_r	hip_flexion_l	hip_adduction_l	hip_rotation_l	knee_angle_l	knee_angle_l_beta	ankle_angle_l	subtalar_angle_l	mtp_angle_l	lumbar_extension	lumbar_bending	lumbar_rotation	arm_flex_r	arm_add_r	arm_rot_r	elbow_flex_r	pro_sup_r	wrist_flex_r	wrist_dev_r	arm_flex_l	arm_add_l	arm_rot_l	elbow_flex_l	pro_sup_l	wrist_flex_l	wrist_dev_l
      3.80000000	    -28.72201794	    -10.11729486	     -3.39405194	     -0.35448006	      0.72287867	     -0.72838566	     81.71318367	     14.32393978	     -9.13302100	     87.28951953	      1.52348952	     30.73172525	      0.00000000	      0.00000000	     31.93353211	     -8.12598644	      8.00389180	     97.20211567	      1.69649696	     -9.83773898	      0.00000000	      0.00000000	    -18.45839177	     12.47794323	      7.74297714	     89.94981852	    -11.53565843	      8.72049717	     58.92315355	     86.51989762	      0.00000000	      0.00000000	     89.95073721	     -5.55034061	      6.58326411	     56.81456645	     84.43313364	      0.00000000	      0.00000000
      3.80500000	    -28.70229488	    -10.14917598	     -3.34412239	     -0.35437713	      0.72278880	     -0.72835869	     81.69304356	     14.28572670	     -9.19637842	     87.30889319	      1.52382765	     30.75774610	      0.00000000	      0.00000000	     31.92559926	     -8.12918877	      8.03967202	     97.21605382	      1.69674022	     -9.86945664	      0.00000000	      0.00000000	    -18.47994828	     12.51301679	      7.72319032	     89.94986921	    -11.52549961	      8.72718512	     58.92223604	     86.47991862	      0.00000000	      0.00000000	     89.95076846	     -5.55417368	      6.58583199	     56.82200281	     84.64720804	      0.00000000	      0.00000000
      3.81000000	    -28.71355339	    -10.12415790	     -3.33638344	     -0.35439863	      0.72264566	     -0.72824591	     81.72274484	     14.27937263	     -9.17749630	     87.33628375	      1.52430571	     30.77269775	      0.00000000	      0.00000000	     31.97178362	     -8.09820268	      8.00729516	     97.29332052	      1.69808878	     -9.48883440	      0.00000000	      0.00000000	    -18.46767695	     12.48433406	      7.69673475	     89.94988421	    -11.49621629	      8.72815137	     58.91793650	     86.50310075	      0.00000000	      0.00000000	     89.95084753	     -5.58448860	      6.55052738	     56.82063092	     84.61965597	      0.00000000	      0.00000000
      3.81500000	    -28.69193135	    -10.15581378	     -3.29663396	     -0.35432561	      0.72256478	     -0.72816926	     81.71438928	     14.25150069	     -9.24012918	     87.37303507	      1.52494714	     30.80807483	      0.00000000	      0.00000000	     31.96701098	     -8.11437140	      8.01741622	     97.31345781	      1.69844025	     -9.44483656	      0.00000000	      0.00000000	    -18.49264910	     12.50827885	      7.70343384	     89.94986374	    -11.52183423	      8.72846427	     58.93184625	     86.40406648	      0.00000000	      0.00000000	     89.95085405	     -5.53877315	      6.54707740	     56.81729296	     84.19898759	      0.00000000	      0.00000000
      3.82000000	    -28.69894161	    -10.16826980	     -3.26953388	     -0.35429764	      0.72245898	     -0.72806339	     81.71961505	     14.24843530	     -9.24917784	     87.36824663	      1.52486357	     30.84441739	      0.00000000	      0.00000000	     31.99677859	     -8.11581014	      8.02305941	     97.32896519	      1.69871090	     -9.45143809	      0.00000000	      0.00000000	    -18.48765893	     12.51069803	      7.69731262	     89.94986625	    -11.52338408	      8.70089422	     58.94435338	     86.55385622	      0.00000000	      0.00000000	     89.95085835	     -5.53359509	      6.60657595	     56.84182088	     84.22520160	      0.00000000	      0.00000000
      3.82500000	    -28.70285499	    -10.18817865	     -3.26324144	     -0.35427771	      0.72236047	     -0.72788121	     81.72991793	     14.26235577	     -9.27887029	     87.36724095	      1.52484601	     30.83704355	      0.00000000	      0.00000000	     31.98836184	     -8.15284423	      8.03352512	     97.28857924	      1.69800603	     -9.86747232	      0.00000000	      0.00000000	    -18.48592173	     12.52190486	      7.69861473	     89.94993562	    -11.51787845	      8.73005709	     58.94004740	     86.48618593	      0.00000000	      0.00000000	     89.95090328	     -5.55953300	      6.58666593	     56.84109102	     84.66922856	      0.00000000	      0.00000000
      3.83000000	    -28.61373798	    -10.30161059	     -3.19471618	     -0.35414898	      0.72243933	     -0.72780027	     81.61637179	     14.24337266	     -9.43530068	     87.35319897	      1.52460093	     31.06559187	      0.00000000	      0.00000000	     31.93357998	     -8.26660242	      8.08539072	     97.30443310	      1.69828273	    -10.10697441	      0.00000000	      0.00000000	    -18.61259045	     12.63476433	      7.73390930	     89.94998948	    -11.56687217	      8.97046415	     59.08107089	     84.37206705	      0.00000000	      0.00000000	     89.95086277	     -5.53591209	      6.83346598	     56.96105917	     82.15390993	      0.00000000	      0.00000000
      3.83500000	    -28.67239118	    -10.20801667	     -3.21185145	     -0.35424376	      0.72225340	     -0.72764157	     81.71291090	     14.25123235	     -9.31238657	     87.39390998	      1.52531148	     30.87986308	      0.00000000	      0.00000000	     31.99180818	     -8.14945491	      8.06475810	     97.33916798	      1.69888897	     -9.84190057	      0.00000000	      0.00000000	    -18.53706731	     12.51673934	      7.71471926	     89.94995738	    -11.52846805	      8.69391309	     58.96662086	     86.63212091	      0.00000000	      0.00000000	     89.95095368	     -5.51622151	      6.62269876	     56.87373248	     84.12771057	      0.00000000	      0.00000000
      3.84000000	    -28.67374210	    -10.22676934	     -3.19193293	     -0.35423950	      0.72215686	     -0.72751253	     81.72525861	     14.25359173	     -9.33581131	     87.39847433	      1.52539114	     30.87428804	      0.00000000	      0.00000000	     32.01484747	     -8.16321239	      8.06530956	     97.36460489	      1.69933293	     -9.86293542	      0.00000000	      0.00000000	    -18.53249700	     12.53079871	      7.70204579	     89.95004855	    -11.51310292	      8.71077709	     58.96473026	     86.46161548	      0.00000000	      0.00000000	     89.95098045	     -5.53246848	      6.58600982	     56.86726091	     84.76151082	      0.00000000	      0.00000000
      3.84500000	    -28.69131428	    -10.20992102	     -3.18710630	     -0.35423314	      0.72200729	     -0.72739686	     81.75958925	     14.24831935	     -9.32769694	     87.43016247	      1.52594420	     30.89884388	      0.00000000	      0.00000000	     32.04652480	     -8.14996626	      8.03948953	     97.36958944	      1.69941993	     -9.88575683	      0.00000000	      0.00000000	    -18.50910311	     12.50736048	      7.71869675	     89.95003979	    -11.53042128	      8.70333317	     58.97479493	     86.48887153	      0.00000000	      0.00000000	     89.95103488	     -5.49715794	      6.59646478	     56.87262762	     84.45137514	      0.00000000	      0.00000000
      3.85000000	    -28.70375351	    -10.20869886	     -3.15661236	     -0.35426868	      0.72192745	     -0.72732144	     81.78141718	     14.22123817	     -9.33874302	     87.43989925	      1.52611414	     30.90837768	      0.00000000	      0.00000000	     32.07807377	     -8.12729907	      8.03641460	     97.36531278	      1.69934529	     -9.99301398	      0.00000000	      0.00000000	    -18.50052566	     12.50580313	      7.67341125	     89.95008709	    -11.48640611	      8.68772471	     58.97533962	     86.42617749	      0.00000000	      0.00000000	     89.95109479	     -5.53532275	      6.57318888	     56.89044130	     84.60736909	      0.00000000	      0.00000000
      3.85500000	    -28.65388319	    -10.26974105	     -3.15194099	     -0.35418990	      0.72194567	     -0.72708667	     81.73226311	     14.26222517	     -9.41480228	     87.43209260	      1.52597789	     30.89177861	      0.00000000	      0.00000000	     32.04094135	     -8.21494714	      8.06285771	     97.39926408	      1.69993785	     -9.92704843	      0.00000000	      0.00000000	    -18.57162638	     12.53688396	      7.77419576	     89.95017330	    -11.57114768	      8.71149267	     59.02858516	     86.43664211	      0.00000000	      0.00000000	     89.95113922	     -5.43376804	      6.59000749	     56.88526251	     84.07888675	      0.00000000	      0.00000000
      3.86000000	    -28.70009713	    -10.25204909	     -3.14187775	     -0.35426310	      0.72179789	     -0.72696018	     81.79935015	     14.25646974	     -9.38948853	     87.45548989	      1.52638625	     30.90316264	      0.00000000	      0.00000000	     32.11097265	     -8.18247818	      8.06193096	     97.42587695	      1.70040233	     -9.91226743	      0.00000000	      0.00000000	    -18.52363370	     12.52126464	      7.73804513	     89.95022247	    -11.51533338	      8.68712879	     59.00983385	     86.54499105	      0.00000000	      0.00000000	     89.95115203	     -5.49010243	      6.62041278	     56.90567462	     84.34917254	      0.00000000	      0.00000000
      3.86500000	    -28.76611132	    -10.24542446	     -3.14811264	     -0.35439356	      0.72163853	     -0.72681132	     81.86898887	     14.25775718	     -9.39863204	     87.42584591	      1.52586886	     31.05407749	      0.00000000	      0.00000000	     32.22132736	     -8.17783520	      8.05152815	     97.45874341	      1.70097596	    -10.01057472	      0.00000000	      0.00000000	    -18.46613331	     12.52447825	      7.74524701	     89.95039048	    -11.50469773	      9.04918388	     59.09023373	     83.14045291	      0.00000000	      0.00000000	     89.95119825	     -5.55477738	      6.96505410	     57.02136745	     80.90539632	      0.00000000	      0.00000000
      3.87000000	    -28.74447859	    -10.20699119	     -3.13147922	     -0.35435721	      0.72157682	     -0.72671097	     81.87306475	     14.23293296	     -9.36741807	     87.48649472	      1.52692738	     30.86767809	      0.00000000	      0.00000000	     32.19006119	     -8.13113375	      7.99096059	     97.43519975	      1.70056504	    -10.04994731	      0.00000000	      0.00000000	    -18.47964177	     12.46993177	      7.72352008	     89.95032194	    -11.46571615	      8.67130704	     59.00378593	     86.52626336	      0.00000000	      0.00000000	     89.95122315	     -5.53545250	      6.65797773	     56.93816483	     84.52365105	      0.00000000	      0.00000000
      3.87500000	    -28.72198952	    -10.22973390	     -3.15493447	     -0.35435072	      0.72158549	     -0.72649588	     81.85342100	     14.28214010	     -9.38483037	     87.47286207	      1.52668945	     30.87671000	      0.00000000	      0.00000000	     32.17818537	     -8.18303427	      7.94866771	     97.44781916	      1.70078529	    -10.08105380	      0.00000000	      0.00000000	    -18.52641993	     12.45908520	      7.83981437	     89.95037698	    -11.56670902	      8.69984247	     59.06680247	     86.42017712	      0.00000000	      0.00000000	     89.95129352	     -5.40431552	      6.57816289	     56.93134282	     84.14991032	      0.00000000	      0.00000000
      3.88000000	    -28.78215858	    -10.19274430	     -3.12021452	     -0.35443885	      0.72140182	     -0.72643257	     81.94426668	     14.22505671	     -9.37208754	     87.52003828	      1.52751283	     30.83212627	      0.00000000	      0.00000000	     32.27266457	     -8.11590514	      7.95602429	     97.47228596	      1.70121232	    -10.08805830	      0.00000000	      0.00000000	    -18.45454644	     12.44064055	      7.77260144	     89.95043665	    -11.49569199	      8.67331873	     59.04953973	     86.51669456	      0.00000000	      0.00000000	     89.95137525	     -5.46893469	      6.57366549	     56.94289025	     84.55723014	      0.00000000	      0.00000000
